# AST/ASF file generated using VICON BodyLanguage
# -----------------------------------------------
:version 1.10
:name VICON
:units
  mass 1.0
  length 0.45
  angle deg
:documentation
   .ast/.asf automatically generated from VICON data using
   VICON BodyBuilder and BodyLanguage model FoxedUp or BRILLIANT.MOD
:root
   order TX TY TZ RX RY RZ
   axis XYZ
   position 0 0 0  
   orientation 0 -0 0 
:bonedata
  begin
     id 1 
     name lhipjoint
     direction 0.515797 -0.759363 0.396637 
     length 2.47888 
     axis 0 -0 0  XYZ
  end
  begin
     id 2 
     name lfemur
     direction 0.34202 -0.939693 0  
     length 6.81885  
     axis 0 -0 20  XYZ
    dof rx ry rz
    limits (-160.0 20.0)
           (-70.0 70.0)
           (-60.0 70.0)
  end
  begin
     id 3 
     name ltibia
     direction 0.342037 -0.939687 0   
     length 7.89258   
     axis 0 -0 20   XYZ
    dof rx
    limits (-10.0 170.0)
  end
  begin
     id 4 
     name lfoot
     direction 0.173497 -0.476678 0.861787   
     length 2.51543   
     axis -90 -1.13533e-015 20   XYZ
    dof rx rz
    limits (-45.0 90.0)
           (-70.0 20.0)
  end
  begin
     id 5 
     name ltoes
     direction 1.53564e-011 -4.21897e-011 1   
     length 1.21388   
     axis -90 -1.13533e-015 20   XYZ
    dof rx
    limits (-90.0 20.0)
  end
  begin
     id 6 
     name rhipjoint
     direction -0.489454 -0.772941 0.403729   
     length 2.43534  
     axis 0 -0 0  XYZ 
  end
  begin
     id 7 
     name rfemur
     direction -0.34202 -0.939693 0   
     length 7.10357   
     axis 0 -0 -20   XYZ
    dof rx ry rz
    limits (-160.0 20.0)
           (-70.0 70.0)
           (-70.0 60.0)
  end
  begin
     id 8 
     name rtibia
     direction -0.34202 -0.939693 0   
     length 9.16127   
     axis 0 -0 -20   XYZ
    dof rx
    limits (-10.0 170.0)
 end
 begin
     id 9 
     name rfoot
     direction -0.270974 -0.748671 0.605033   
     length 1.74894  
     axis -90 1.13533e-015 -20   XYZ
    dof rx rz
    limits (-45.0 90.0)
           (-20.0 70.0)
  end
  begin
     id 10 
     name rtoes
     direction -1.53557e-011 -4.21759e-011 1   
     length 0.787585   
     axis -90 1.13533e-015 -20   XYZ
    dof rx
    limits (-90.0 20.0)
  end
  begin
     id 11 
     name lowerback
     direction -0.0140249 0.999561 0.0260968   
     length 2.16963   
     axis 0 -0 0   XYZ
    dof rx ry rz
    limits (-20.0 45.0)
           (-30.0 30.0)
           (-30.0 30.0)
  end
  begin
     id 12 
     name upperback
     direction 0.00860018 0.999959 -0.002711   
     length 2.1726   
     axis 0 -0 0   XYZ
    dof rx ry rz
    limits (-20.0 45.0)
           (-30.0 30.0)
           (-30.0 30.0)
  end
  begin
     id 13 
     name thorax
     direction 0.015211 0.999782 -0.0143191   
     length 2.17061   
     axis 0 -0 0   XYZ
    dof rx ry rz
    limits (-20.0 45.0)
           (-30.0 30.0)
           (-30.0 30.0)
  end
  begin
     id 14 
     name lowerneck
     direction -0.0140143 0.999447 0.030145   
     length 2.26749   
     axis 0 -0 0   XYZ
    dof rx ry rz
    limits (-20.0 45.0)
           (-30.0 30.0)
           (-30.0 30.0)
  end
  begin
     id 15 
     name upperneck
     direction 0.118062 0.961438 -0.248392   
     length 2.22728   
     axis 0 -0 0   XYZ
    dof rx ry rz
    limits (-20.0 45.0)
           (-30.0 30.0)
           (-30.0 30.0)
  end
  begin
     id 16
     name head
     direction 0.0431885 0.9954 -0.085514  
     length 2.28786  
     axis 0 -0 0   XYZ
    dof rx ry rz
    limits (-20.0 45.0)
           (-30.0 30.0)
           (-30.0 30.0)
  end
  begin
     id 17 
     name lclavicle
     direction 0.912126 0.409548 0.0172323  
     length 4.31571  
     axis 0 -0 0   XYZ
    dof ry rz
    limits (-20.0 10.0)
           (0.0 20.0)
  end
  begin
     id 18 
     name lhumerus
     direction 1 -4.48977e-011 1.93091e-027   
     length 5.13658   
     axis 180 -30 -90   XYZ
    dof rx ry rz
    limits (-60.0 90.0)
           (-90.0 90.0)
           (-90.0 90.0)
  end
  begin
     id 19
     name lradius
     direction 1 -4.48916e-011 6.84018e-027   
     length 3.22473   
     axis 180 -30 -90   XYZ
    dof rx
    limits (-10.0 170.0)
  end
  begin
     id 20
     name lwrist
     direction 1 -4.48987e-011 7.01981e-027   
     length 1.61236   
     axis -4.37994e-015 90 90   XYZ
    dof ry
    limits (-180.0 0.0)
 end
  begin
     id 21 
     name lhand
     direction 1 -4.49037e-011 1.40335e-026   
     length 0.936406   
     axis -8.96029e-015 90 90   XYZ
    dof rx rz
    limits (-90.0 90.0)
           (-45.0 45.0)
  end
  begin
     id 22 
     name lfingers
     direction 1 -4.48886e-011 2.8104e-026   
     length 0.754955   
     axis -1.79203e-014 90 90   XYZ
    dof rx
    limits (0.0 90.0)
  end
  begin
     id 23
     name lthumb
     direction 0.707107 -6.34937e-011 0.707107   
     length 1.08397   
     axis -90 45 -4.48555e-014   XYZ
    dof rx rz
    limits (-45.0 45.0)
           (-45.0 45.0)
  end
  begin
     id 24 
     name rclavicle
     direction -0.947962 0.317997 0.0156638   
     length 4.86918  
     axis 0 -0 0   XYZ 
    dof ry rz
    limits (-10.0 20.0)
           (-20.0 0.0)
  end
  begin
     id 25 
     name rhumerus
     direction -1 -4.48951e-011 2.80534e-018  
     length 5.60911   
     axis 180 30 90   XYZ
    dof rx ry rz
    limits (-90.0 60.0)
           (-90.0 90.0)
           (-90.0 90.0)
  end
  begin
     id 26 
     name rradius
     direction -1 -4.4898e-011 2.11315e-027   
     length 3.38704   
     axis 180 30 90   XYZ
    dof rx
    limits (-10.0 170.0)
  end
  begin
     id 27 
     name rwrist
     direction -1 -4.48933e-011 7.02314e-027   
     length 1.69352   
     axis -4.37994e-015 -90 -90   XYZ
    dof ry
    limits (-180.0 0.0)
  end
  begin
     id 28
     name rhand
     direction -1 -4.48937e-011 1.40458e-026   
     length 0.755878   
     axis -8.96029e-015 -90 -90   XYZ
    dof rx rz
    limits (-90.0 90.0)
           (-45.0 45.0)
  end
  begin
     id 29
     name rfingers
     direction -1 -4.4901e-011 2.80737e-026   
     length 0.609409   
     axis -1.79203e-014 -90 -90   XYZ
    dof rx
    limits (0.0 90.0)
  end
  begin
     id 30
     name rthumb
     direction -0.707107 -6.34968e-011 0.707107   
     length 0.874992   
     axis -90 -45 4.48555e-014   XYZ
    dof rx rz
    limits (-45.0 45.0)
           (-45.0 45.0)
  end
:hierarchy
  begin
    root lhipjoint rhipjoint lowerback
    lhipjoint lfemur
    lfemur ltibia
    ltibia lfoot
    lfoot ltoes
    rhipjoint rfemur
    rfemur rtibia
    rtibia rfoot
    rfoot rtoes
    lowerback upperback
    upperback thorax
    thorax lowerneck lclavicle rclavicle
    lowerneck upperneck
    upperneck head
    lclavicle lhumerus
    lhumerus lradius
    lradius lwrist
    lwrist lhand lthumb
    lhand lfingers
    rclavicle rhumerus
    rhumerus rradius
    rradius rwrist
    rwrist rhand rthumb
    rhand rfingers
  end

#!OML:ASF C:\ViconDB\ViconDB\414\Spring2016\041811\Spring2016.ASF
:FULLY-SPECIFIED
:DEGREES
16
root 12.3743 18.2437 6.12385 -178.056 -7.35921 -177.544
lowerback -5.0417 0.807444 -0.86904
upperback 1.05675 1.09801 0.831405
thorax 3.8854 0.514268 1.43669
lowerneck -13.0663 3.461 -4.18676
upperneck 25.3325 1.91211 10.3066
head 10.0081 1.17581 4.52205
rclavicle 2.78236e-014 7.7526e-015
rhumerus -41.1152 -18.5826 -84.4741
rradius 31.4848
rwrist 50.993
rhand -35.0778 -11.799
rfingers 7.12502
rthumb -8.2199 -41.6191
lclavicle 2.78236e-014 7.7526e-015
lhumerus -37.5012 -1.76552 90.4306
lradius 24.8668
lwrist -36.3895
lhand -25.522 13.6689
lfingers 7.12502
lthumb 1.00737 43.6462
rfemur 170.079 63.2649 -163.101
rtibia 27.9106
rfoot -69.2684 -39.8155
rtoes -31.7481
lfemur -9.12692 -8.36067 -16.2377
ltibia 25.2302
lfoot -21.4359 7.85995
ltoes -12.6307
17
root 12.3703 18.2438 6.12117 -178.053 -7.34824 -177.592
lowerback -5.01609 0.782097 -0.976942
upperback 1.08127 1.07086 0.840299
thorax 3.89512 0.498062 1.50407
lowerneck -13.0978 3.43521 -4.19188
upperneck 25.2606 1.92985 10.1894
head 9.98883 1.17692 4.48138
rclavicle -1.26912e-014 7.7526e-015
rhumerus -41.0483 -18.5339 -84.4998
rradius 31.4715
rwrist 51.0127
rhand -35.0392 -11.7808
rfingers 7.12502
rthumb -8.18262 -41.6023
lclavicle -1.26912e-014 7.7526e-015
lhumerus -37.4439 -1.71317 90.4195
lradius 24.8604
lwrist -36.3285
lhand -25.4781 13.6739
lfingers 7.12502
lthumb 1.04984 43.651
rfemur 170.033 63.228 -163.205
rtibia 27.9197
rfoot -69.2447 -39.8025
rtoes -31.7911
lfemur -9.1051 -8.34003 -16.3017
ltibia 25.2259
lfoot -21.4608 7.82664
ltoes -12.5297
18
root 12.365 18.244 6.11764 -178.028 -7.33057 -177.598
lowerback -5.04475 0.804954 -0.932844
upperback 1.06794 1.09944 0.822557
thorax 3.89769 0.513569 1.4637
lowerneck -13.1364 3.42863 -4.1362
upperneck 25.3355 1.90744 10.147
head 10.0272 1.16578 4.45821
rclavicle 7.44821e-015 -3.18055e-015
rhumerus -41.0798 -18.5342 -84.4942
rradius 31.4863
rwrist 50.9006
rhand -34.9999 -11.7999
rfingers 7.12502
rthumb -8.1447 -41.623
lclavicle 7.44821e-015 -3.18055e-015
lhumerus -37.4752 -1.73142 90.4335
lradius 24.8526
lwrist -36.2594
lhand -25.5014 13.6501
lfingers 7.12502
lthumb 1.02727 43.6273
rfemur 170.085 63.3135 -163.186
rtibia 27.9069
rfoot -69.3321 -39.8145
rtoes -31.6865
lfemur -9.12074 -8.35599 -16.3315
ltibia 25.2419
lfoot -21.4899 7.85826
ltoes -12.5326
19
root 12.3615 18.2448 6.11543 -178.017 -7.31728 -177.574
lowerback -5.0226 0.807725 -0.871213
upperback 1.05832 1.10115 0.775833
thorax 3.87716 0.516749 1.38047
lowerneck -13.0814 3.44434 -4.04377
upperneck 25.3037 1.91007 10.1285
head 10.0071 1.17166 4.43272
rclavicle -1.5381e-014 1.59028e-015
rhumerus -41.1006 -18.5742 -84.5791
rradius 31.4975
rwrist 50.9511
rhand -34.9933 -11.8807
rfingers 7.12502
rthumb -8.13834 -41.704
lclavicle -1.5381e-014 1.59028e-015
lhumerus -37.4793 -1.74194 90.3272
lradius 24.8517
lwrist -36.2909
lhand -25.465 13.7945
lfingers 7.12502
lthumb 1.0625 43.7716
rfemur 170.097 63.2462 -163.161
rtibia 27.9061
rfoot -69.2678 -39.8609
rtoes -31.6384
lfemur -9.13046 -8.35207 -16.3105
ltibia 25.2415
lfoot -21.4877 7.8485
ltoes -12.4919
20
root 12.3569 18.2455 6.11081 -177.959 -7.33078 -177.496
lowerback -5.14719 0.847649 -0.860814
upperback 1.04844 1.15037 0.856071
thorax 3.93442 0.539664 1.46378
lowerneck -12.9739 3.39451 -4.1601
upperneck 25.2312 1.86709 10.1547
head 9.96084 1.14245 4.45126
rclavicle 2.11395e-014 1.25234e-014
rhumerus -41.1451 -18.5948 -84.4235
rradius 31.5192
rwrist 50.9861
rhand -34.9704 -11.7813
rfingers 7.12502
rthumb -8.11618 -41.6054
lclavicle 2.11395e-014 1.25234e-014
lhumerus -37.4844 -1.85579 90.4901
lradius 24.8566
lwrist -36.2025
lhand -25.4433 13.6775
lfingers 7.12502
lthumb 1.0834 43.6545
rfemur 170.245 63.3678 -162.956
rtibia 27.8972
rfoot -69.4167 -39.8454
rtoes -31.656
lfemur -9.20039 -8.29391 -16.2278
ltibia 25.2518
lfoot -21.4794 7.7947
ltoes -12.4631
21
root 12.3529 18.2434 6.10951 -177.989 -7.28359 -177.588
lowerback -5.07037 0.863748 -0.987166
upperback 1.05431 1.17979 0.86119
thorax 3.89364 0.551765 1.54101
lowerneck -12.9724 3.39039 -4.1429
upperneck 25.2607 1.87948 10.0644
head 9.97182 1.13991 4.41853
rclavicle 1.49337e-014 5.96354e-016
rhumerus -41.1556 -18.514 -84.4102
rradius 31.5492
rwrist 50.8256
rhand -34.9925 -11.8042
rfingers 7.12502
rthumb -8.13749 -41.6275
lclavicle 1.49337e-014 5.96354e-016
lhumerus -37.4612 -1.76311 90.5107
lradius 24.8158
lwrist -36.294
lhand -25.5752 12.8999
lfingers 7.12502
lthumb 0.956076 42.8775
rfemur 170.121 63.2354 -163.183
rtibia 27.9028
rfoot -69.3037 -39.8408
rtoes -31.6895
lfemur -9.13079 -8.30245 -16.3549
ltibia 25.2478
lfoot -21.5179 7.8408
ltoes -12.5015
22
root 12.3495 18.2427 6.10669 -177.985 -7.27986 -177.591
lowerback -5.04903 0.862311 -0.925546
upperback 1.05138 1.17587 0.814712
thorax 3.88083 0.55206 1.45764
lowerneck -12.9596 3.40135 -4.16682
upperneck 25.2493 1.8756 10.1492
head 9.96365 1.14381 4.4516
rclavicle -1.64308e-014 1.59028e-015
rhumerus -41.1681 -18.5072 -84.479
rradius 31.5749
rwrist 50.7458
rhand -34.9519 -11.701
rfingers 7.12502
rthumb -8.09833 -41.5258
lclavicle -1.64308e-014 1.59028e-015
lhumerus -37.4482 -1.66147 90.3898
lradius 24.8135
lwrist -36.4368
lhand -25.5708 12.8319
lfingers 7.12502
lthumb 0.960297 42.8095
rfemur 170.088 63.1442 -163.228
rtibia 27.9074
rfoot -69.1779 -39.8636
rtoes -31.6845
lfemur -9.11963 -8.246 -16.3724
ltibia 25.2444
lfoot -21.5039 7.82011
ltoes -12.5796
23
root 12.3445 18.2427 6.10354 -177.973 -7.26954 -177.609
lowerback -5.04567 0.868507 -0.915562
upperback 1.0485 1.18448 0.793518
thorax 3.87631 0.556951 1.43076
lowerneck -12.954 3.40415 -4.19386
upperneck 25.2525 1.86655 10.2101
head 9.96293 1.14258 4.47695
rclavicle 2.3879e-014 4.96962e-015
rhumerus -41.1889 -18.6226 -84.4363
rradius 31.5709
rwrist 50.8427
rhand -34.9232 -11.714
rfingers 7.12502
rthumb -8.07068 -41.5399
lclavicle 2.3879e-014 4.96962e-015
lhumerus -37.4687 -1.62055 90.3332
lradius 24.8239
lwrist -36.46
lhand -25.5549 12.8686
lfingers 7.12502
lthumb 0.975639 42.8462
rfemur 170.09 63.1911 -163.254
rtibia 27.9207
rfoot -69.2202 -39.8615
rtoes -31.589
lfemur -9.10849 -8.21756 -16.4092
ltibia 25.2301
lfoot -21.5037 7.79541
ltoes -12.5329
